<svg viewBox="0 0 500 500" xmlns="http://www.w3.org/2000/svg" xmlns:bx="https://boxy-svg.com">
  <defs>
    <bx:grid x="0" y="0" width="10" height="10"></bx:grid>
  </defs>
  <path style="fill: rgb(216, 216, 216); stroke: rgb(0, 0, 0);" d="M 677.387 117.391 L 677.822 150 L 651.735 132.174 L 651.3 100.435 L 677.387 117.391 Z"></path>
  <path style="fill: rgb(216, 216, 216); stroke: rgb(0, 0, 0);" d="M 709.561 132.174 L 678.692 149.131 L 677.387 117.826 L 706.083 101.739 L 710.866 129.565"></path>
  <path style="fill: rgb(216, 216, 216); stroke: rgb(0, 0, 0);" d="M 653.04 94.348 C 653.04 94.348 679.561 79.565 679.996 79.565 C 680.431 79.565 706.518 101.304 706.518 101.304"></path>
  <path style="fill: rgb(216, 216, 216); stroke: rgb(0, 0, 0);" d="M 648.257 137.391 L 610.431 160 L 641.3 183.913 L 679.561 148.696 L 648.257 137.391 Z"></path>
  <path style="fill: rgb(216, 216, 216); stroke: rgb(0, 0, 0);" d="M 683.474 151.739 L 711.3 136.087 L 742.605 159.131 L 728.692 181.739 L 683.474 151.739 Z"></path>
  <path style="fill: rgb(216, 216, 216); stroke: rgb(0, 0, 0);" d="M 640.866 188.696 L 644.779 206.087 L 680.866 170.435 L 681.3 153.044 L 641.735 184.348"></path>
  <path style="fill: rgb(216, 216, 216); stroke: rgb(0, 0, 0);" d="M 608.692 163.913 L 607.387 190.87 L 640.431 208.696 L 636.518 183.044 L 608.692 163.913 Z"></path>
  <path style="fill: rgb(216, 216, 216); stroke: rgb(0, 0, 0);" d="M 685.213 172.174 L 723.474 200.435 L 727.822 180.435 L 683.474 152.174 L 685.213 172.174 Z"></path>
  <path style="fill: rgb(216, 216, 216); stroke: rgb(0, 0, 0);" d="M 743.04 165.217 L 741.735 188.696 L 726.518 203.044 L 728.692 182.609 L 743.04 165.217 Z"></path>
  <path style="fill: rgb(216, 216, 216); stroke: rgb(0, 0, 0);" d="M 250.435 299.565"></path>
  <path style="fill: rgb(216, 216, 216); stroke: rgb(0, 0, 0); stroke-linejoin: round; stroke-width: 4px;" d="M 169.57 63.334 L 169.57 223.333 L 329.571 276.667 L 329.571 116.667 L 169.57 63.334 Z"></path>
  <path style="fill: rgb(216, 216, 216); stroke: rgb(0, 0, 0); stroke-linejoin: round; stroke-width: 4px;" d="M 489.57 63.334 C 489.57 63.334 490.498 223.333 489.57 223.333 C 488.643 223.333 329.571 276.667 329.571 276.667 L 329.571 116.667 L 489.57 63.334 Z"></path>
  <path style="stroke: rgb(0, 0, 0); stroke-linejoin: round; fill: rgb(255, 56, 56); stroke-width: 4px;" d="M 329.571 10 L 169.57 63.334 L 329.571 116.667 L 489.57 63.334 L 329.571 10 Z"></path>
  <path style="stroke: rgb(0, 0, 0); stroke-linejoin: round; fill: rgb(255, 56, 56); stroke-width: 4px;" d="M 9.57 436.666 L 9.57 276.667 L 169.57 330 L 169.57 490 L 9.57 436.666 Z"></path>
  <path style="fill: rgb(216, 216, 216); stroke: rgb(0, 0, 0); stroke-linejoin: round; stroke-width: 4px;" d="M 329.571 436.666 L 169.57 490 L 169.57 330 L 329.571 276.667 L 329.571 436.666 Z"></path>
  <path style="fill: rgb(216, 216, 216); stroke: rgb(0, 0, 0); stroke-linejoin: round; stroke-width: 4px;" d="M 169.57 223.333 C 169.57 223.333 8.644 276.667 9.57 276.667 C 10.496 276.667 169.57 330 169.57 330 L 329.571 276.667 L 169.57 223.333 Z"></path>
  <path style="stroke: rgb(0, 0, 0); stroke-linejoin: round; fill: rgb(255, 56, 56); stroke-width: 4px;" d="M 169.57 330 L 9.57 276.667 L 9.57 116.667 L 169.57 170 L 169.57 330 Z"></path>
  <path style="fill: rgb(216, 216, 216); stroke: rgb(0, 0, 0); stroke-linejoin: round; stroke-width: 4px;" d="M 329.571 276.667 L 169.57 330 L 169.57 170 L 329.571 116.667 L 329.571 276.667 Z"></path>
  <path style="stroke: rgb(0, 0, 0); stroke-linejoin: round; fill: rgb(255, 56, 56); stroke-width: 4px;" d="M 169.57 63.334 L 329.571 116.667 L 169.57 170 L 9.57 116.667 L 169.57 63.334 Z"></path>
</svg>
