<svg viewBox="0 0 500 500" xmlns="http://www.w3.org/2000/svg" xmlns:bx="https://boxy-svg.com">
  <defs>
    <bx:grid x="0" y="0" width="10" height="10"></bx:grid>
  </defs>
  <path style="fill: rgb(216, 216, 216); stroke: rgb(0, 0, 0);" d="M 250.435 299.565"></path>
  <path style="fill: rgb(216, 216, 216); stroke: rgb(0, 0, 0); stroke-linejoin: round; stroke-width: 4px;" d="M 169.57 63.334 L 169.57 223.333 L 329.571 276.667 L 329.571 116.667 L 169.57 63.334 Z"></path>
  <path style="fill: rgb(216, 216, 216); stroke: rgb(0, 0, 0); stroke-linejoin: round; stroke-width: 4px;" d="M 489.57 63.334 C 489.57 63.334 490.498 223.333 489.57 223.333 C 488.643 223.333 329.571 276.667 329.571 276.667 L 329.571 116.667 L 489.57 63.334 Z"></path>
  <path style="stroke: rgb(0, 0, 0); stroke-linejoin: round; fill: rgb(255, 56, 56); stroke-width: 4px;" d="M 329.571 10 L 169.57 63.334 L 329.571 116.667 L 489.57 63.334 L 329.571 10 Z"></path>
  <path style="stroke: rgb(0, 0, 0); stroke-linejoin: round; fill: rgb(255, 56, 56); stroke-width: 4px;" d="M 9.57 436.666 L 9.57 276.667 L 169.57 330 L 169.57 490 L 9.57 436.666 Z"></path>
  <path style="fill: rgb(216, 216, 216); stroke: rgb(0, 0, 0); stroke-linejoin: round; stroke-width: 4px;" d="M 329.571 436.666 L 169.57 490 L 169.57 330 L 329.571 276.667 L 329.571 436.666 Z"></path>
  <path style="fill: rgb(216, 216, 216); stroke: rgb(0, 0, 0); stroke-linejoin: round; stroke-width: 4px;" d="M 169.57 223.333 C 169.57 223.333 8.644 276.667 9.57 276.667 C 10.496 276.667 169.57 330 169.57 330 L 329.571 276.667 L 169.57 223.333 Z"></path>
  <path style="stroke: rgb(0, 0, 0); stroke-linejoin: round; fill: rgb(255, 56, 56); stroke-width: 4px;" d="M 169.57 330 L 9.57 276.667 L 9.57 116.667 L 169.57 170 L 169.57 330 Z"></path>
  <path style="fill: rgb(216, 216, 216); stroke: rgb(0, 0, 0); stroke-linejoin: round; stroke-width: 4px;" d="M 329.571 276.667 L 169.57 330 L 169.57 170 L 329.571 116.667 L 329.571 276.667 Z"></path>
  <path style="stroke: rgb(0, 0, 0); stroke-linejoin: round; fill: rgb(255, 56, 56); stroke-width: 4px;" d="M 169.57 63.334 L 329.571 116.667 L 169.57 170 L 9.57 116.667 L 169.57 63.334 Z"></path>
</svg>